<svg width="10" height="8" viewBox="0 0 10 8" fill="none" xmlns="http://www.w3.org/2000/svg">
<path d="M0.380049 6.38H1.78005V1.54L1.88005 0.95L1.48005 1.42L0.380049 2.21L4.88311e-05 1.7L2.20005 7.15256e-07H2.56005V6.38H3.93005V7.12H0.380049V6.38ZM9.20927 1.71C9.20927 2.06333 9.1426 2.42667 9.00927 2.8C8.8826 3.16667 8.7126 3.53667 8.49927 3.91C8.2926 4.28333 8.05927 4.65 7.79927 5.01C7.53927 5.36333 7.27927 5.7 7.01927 6.02L6.52927 6.45V6.49L7.16927 6.38H9.34927V7.12H5.36927V6.83C5.51593 6.67667 5.6926 6.48667 5.89927 6.26C6.10593 6.03333 6.31927 5.78333 6.53927 5.51C6.76593 5.23 6.98593 4.93667 7.19927 4.63C7.41927 4.31667 7.61593 4 7.78927 3.68C7.96927 3.36 8.1126 3.04333 8.21927 2.73C8.32593 2.41667 8.37927 2.12 8.37927 1.84C8.37927 1.51333 8.28593 1.24333 8.09927 1.03C7.9126 0.810001 7.62927 0.700001 7.24927 0.700001C6.99593 0.700001 6.74927 0.753334 6.50927 0.86C6.26927 0.960001 6.0626 1.07667 5.88927 1.21L5.55927 0.640001C5.7926 0.440001 6.06927 0.283334 6.38927 0.17C6.70927 0.0566672 7.0526 7.15256e-07 7.41927 7.15256e-07C7.70593 7.15256e-07 7.95927 0.0433339 8.17927 0.13C8.39927 0.21 8.58593 0.326667 8.73927 0.48C8.8926 0.633334 9.00927 0.816667 9.08927 1.03C9.16927 1.23667 9.20927 1.46333 9.20927 1.71Z" fill="white"/>
</svg>
